Coordinates
version=1
nRows=11
nColumns=36
inDegrees=yes

Units are S.I. units (second, meters, Newtons, ...)
If the header above contains a line with 'inDegrees', this indicates whether rotational values are in degrees (yes) or radians (no).

endheader
time	pelvis_tilt	pelvis_list	pelvis_rotation	pelvis_tx	pelvis_ty	pelvis_tz	hip_flexion_r	hip_adduction_r	hip_rotation_r	knee_angle_r	knee_angle_r_beta	ankle_angle_r	subtalar_angle_r	mtp_angle_r	hip_flexion_l	hip_adduction_l	hip_rotation_l	knee_angle_l	knee_angle_l_beta	ankle_angle_l	subtalar_angle_l	mtp_angle_l	lumbar_extension	lumbar_bending	lumbar_rotation	arm_flex_r	arm_add_r	arm_rot_r	elbow_flex_r	pro_sup_r	arm_flex_l	arm_add_l	arm_rot_l	elbow_flex_l	pro_sup_l
      0.00000000	      2.51829178	     -0.08447262	     13.20432921	      0.90862063	      1.00026777	      0.17233245	     -0.02878610	      5.26812682	      0.19822174	     10.45278839	      0.18243557	     11.02405448	     -3.03934596	     -6.92682823	     20.84137251	     -2.90346587	      3.68914995	     15.21497920	      0.26555148	     -4.29907892	     -7.37767731	     -6.92682823	    -10.26398432	      1.94565135	     -2.07635330	     27.68449814	     -7.44739247	     59.88939292	    120.94541483	     88.76719995	     25.00358041	     -2.37582299	     66.25168127	    119.70164072	     98.16591929
      0.01666670	      2.45102850	     -1.63645803	     12.56267632	      0.91025446	      0.99620408	      0.17153429	      0.62168546	      7.53021649	      2.77609395	     10.52605554	      0.18371433	     11.09605439	     -6.27434583	     -7.02751193	     21.03609729	     -4.92617968	      5.62566431	     11.67812089	      0.20382166	     -5.75629988	     -4.51936235	     -7.02751193	    -10.12678579	      4.33152570	      1.03039706	     30.05929910	    -11.11812868	     66.81468918	    124.56856234	    101.34133212	     26.45409578	     -2.20638609	     64.34667811	    123.40699727	    108.00007773
      0.03333330	      2.79238635	     -1.05791010	     11.75924929	      0.91612824	      0.99633368	      0.17557474	      0.14508705	      7.15051047	      1.80155726	     10.66719917	      0.18617775	     12.07280794	     -5.70199083	     -7.04492042	     19.42774730	     -5.39214409	      4.01876126	      8.21583708	      0.14339341	     -9.45376911	     -2.54239235	     -7.04492042	    -10.22579121	      3.36854008	      1.75655411	     29.42956341	     -8.74052035	     64.07103488	    125.25741437	    101.64575591	     27.33854069	     -2.55400208	     64.37192917	    124.17212078	    109.06178143
      0.05000000	      2.49094651	     -0.63155880	     11.77937172	      0.91757893	      0.99654635	      0.17599823	      0.51463646	      6.62625616	      0.17695662	     10.89727037	      0.19019325	     13.66937094	     -4.31675486	     -7.08341223	     19.32509403	     -5.29687010	      3.83087365	      7.02113792	      0.12254197	    -10.36253153	     -0.95540839	     -7.08341223	     -9.53984175	      2.66151853	      2.06239135	     28.26135860	     -7.43487500	     62.86058174	    124.91876513	    102.16238029	     27.68227876	     -2.31870371	     64.66736111	    124.30281766	    110.09516873
      0.06666670	      2.05229336	     -0.46401779	     11.55633127	      0.91687434	      0.99323520	      0.17567370	      1.37232814	      6.43510096	     -0.41332061	     11.88022637	      0.20734907	     14.64983724	     -4.08699446	     -7.12388260	     19.64251008	     -5.30704788	      3.48182243	      6.82361313	      0.11909452	    -10.26340217	      0.08824081	     -7.12388260	     -8.99144782	      2.35209897	      2.22388147	     27.84504005	     -6.61551411	     62.80941249	    124.43769439	    101.84674631	     28.25287233	     -1.92839403	     64.70914938	    124.45196662	    109.79790993
      0.08333330	      1.58804298	     -0.26312009	     11.60828468	      0.91774697	      0.99285197	      0.17566119	      2.22498992	      6.14336234	     -1.03708937	     12.75297316	      0.22258137	     15.27593972	     -3.88721260	     -7.21174668	     20.10390923	     -5.08318734	      3.26268386	      7.17476935	      0.12522335	    -10.46570609	      0.65546443	     -7.21174668	     -8.55744795	      2.09678180	      2.20929538	     27.53497548	     -5.98763854	     62.69993568	    123.90873520	    101.56197993	     28.45431115	     -1.64758650	     64.29061933	    124.42849309	    109.77783139
      0.10000000	      1.19291331	     -0.04525892	     11.59356521	      0.91703128	      0.99299597	      0.17528860	      2.96906827	      5.84588169	     -1.33012732	     13.54686291	      0.23643736	     15.53762194	     -3.96580113	     -7.29706684	     20.56407475	     -4.81571216	      2.96287954	      7.79671778	      0.13607840	    -10.76839096	      0.88710290	     -7.29706684	     -8.20278729	      1.86070778	      2.20336575	     27.39778906	     -5.55159805	     63.00143431	    123.45998066	    101.09688907	     28.49276957	     -1.49762260	     63.86948545	    124.24692681	    108.60847452
      0.11666670	      0.95474147	      0.16035541	     11.67676671	      0.91758878	      0.99304423	      0.17540570	      3.49133067	      5.58002577	     -1.68034487	     14.16364735	      0.24720228	     15.73521302	     -3.88283972	     -7.39668919	     20.85822837	     -4.57198353	      2.61288608	      8.47310067	      0.14788350	    -11.06832606	      1.09437815	     -7.39668919	     -8.03487396	      1.66751755	      2.18078855	     27.25623648	     -5.36608658	     62.92413189	    123.02475532	    101.12578966	     28.54106641	     -1.41284568	     63.65308510	    124.08571987	    107.44984900
      0.13333330	      0.76720949	      0.27992233	     11.66869973	      0.91686943	      0.99337668	      0.17498326	      3.99252829	      5.38180129	     -1.94322696	     14.80407495	      0.25837985	     15.77400303	     -3.78906269	     -7.42705435	     21.07031321	     -4.41532878	      2.33181020	      9.01413729	      0.15732637	    -11.15856367	      1.35544648	     -7.42705435	     -7.86746356	      1.60625256	      2.12768404	     27.21515763	     -5.38696612	     63.22132910	    122.97040614	     99.72353886	     28.46278768	     -1.37885791	     63.38007505	    123.88352992	    106.84235528
      0.15000000	      0.59428716	      0.38445747	     11.61660719	      0.91739022	      0.99331034	      0.17518550	      4.15456093	      5.23393684	     -2.04279334	     14.86104388	      0.25937415	     15.66638382	     -3.75761599	     -7.43539469	     21.09705148	     -4.30423638	      2.03648848	      9.11308588	      0.15905335	    -11.17102365	      1.65760857	     -7.43539469	     -7.66988222	      1.52983153	      2.18800114	     27.17361385	     -5.42749678	     63.43223576	    122.95242800	     98.58688321	     28.38234501	     -1.38169318	     63.31460185	    123.73389530	    105.03488927
      0.16666670	      0.40419345	      0.34978338	     11.69379345	      0.91638911	      0.99099223	      0.17456778	      4.44131134	      5.18934747	     -2.29268427	     14.87393959	      0.25959922	     15.66555034	     -3.56642623	     -7.46050294	     21.26345083	     -4.29385973	      1.91308124	      9.15108145	      0.15971650	    -11.06710663	      2.00685377	     -7.46050294	     -7.55036535	      1.58637879	      1.90785338	     27.33898367	     -5.35973355	     63.62778163	    123.06893209	     99.90111307	     28.59257776	     -1.38246094	     63.24992702	    123.80552902	    104.96645568
